<?xml version="1.0" encoding="UTF-8"?>
<svg id="Calque_2" data-name="Calque 2" xmlns="http://www.w3.org/2000/svg" viewBox="0 0 1920 1080.12">
  <defs>
    <style>
      .cls-1 {
        fill: #1ee592;
      }

      .cls-1, .cls-2, .cls-3, .cls-4 {
        stroke-width: 0px;
      }

      .cls-2 {
        fill: #963eff;
      }

      .cls-3 {
        fill: #3cf;
      }

      .cls-4 {
        fill: #fff;
      }
    </style>
  </defs>
  <g id="Calque_1-2" data-name="Calque 1">
    <rect class="cls-4" width="1920" height="1080"/>
    <g id="cloud_left" data-name="cloud left">
      <path class="cls-3" d="M650.9,1080.02s8.5-86.2-106-95.9c0,0-10.6-108.1-175.7-78.3v174.2h281.7Z"/>
      <path class="cls-3" d="M0,569.32s113.1-47.4,144.4,72.2c0,0,123.5,8.6,66.3,139l-97.8,46.9-112.9,6v-264.1Z"/>
      <path class="cls-1" d="M173.2,782.42s131.1-20.2,145.4,110.1c0,0,72.8-2.1,100.1,72.2,27.3,74.3-11.7,115.3-11.7,115.3H116.3v-244.8l56.9-52.8h0Z"/>
      <path class="cls-2" d="M0,636.92s66.3,18.6,63.7,80c0,0,195.1,25.9,75.4,178.9L0,900.12v-263.2Z"/>
      <path class="cls-3" d="M0,871.42s178.2-17.6,188.6,94.5c0,0,141.1,2.1,124.5,114.2H0v-208.7h0Z"/>
    </g>
    <g id="cloud_right" data-name="cloud right">
      <path class="cls-1" d="M1518.66,867.2s-21.4,9.9-16.7,40.9c0,0-28.1-.2-42.8,22.9v149h336.2v-199.3l-176-35.1-100.8,21.6h.1Z"/>
      <path class="cls-3" d="M1641.86,690.4s-60.2,12.7-64.9,73.7c0,0-71.6,20-69.2,67,2.3,47,37.8,64,67,73.5s67.9,6.5,74.9,4.5c0,0,22.3,42,75.1,57l8.2,27h186.8v-275l-278-27.6h0l.1-.1Z"/>
      <path class="cls-1" d="M1919.56,577s-16.4-18.8-85.6-16.8-119.6,23-125.5,72c0,0-75.1,14-65.7,73,0,0,8.6,69.9,138,52.4,0,0,15.5,52.1,107.2,54.5,37.5,1,31.7-3.8,31.7-3.8v-231.3h-.1Z"/>
      <path class="cls-2" d="M1920,896.3s-23.5-14.3-66.9-14.3-110.3,17-117.3,81c0,0-61,13-59.8,65s36.7,52,36.7,52h207.3v-183.6h0v-.1Z"/>
      <path class="cls-2" d="M1659.66,1080s-6.4-78-96.7-75c0,0-3.5-77-114.9-74s-119.6,58-119.6,78c0,0-65,17-58.3,71h389.6-.1Z"/>
    </g>
  </g>
</svg>