<?xml version="1.0" encoding="UTF-8"?>
<!DOCTYPE svg PUBLIC "-//W3C//DTD SVG 1.1//EN" "http://www.w3.org/Graphics/SVG/1.1/DTD/svg11.dtd">
<svg xmlns="http://www.w3.org/2000/svg" version="1.1" width="1911px" height="546px" style="shape-rendering:geometricPrecision; text-rendering:geometricPrecision; image-rendering:optimizeQuality; fill-rule:evenodd; clip-rule:evenodd" xmlns:xlink="http://www.w3.org/1999/xlink">
<g><path style="opacity:0.995" fill="#33cbfe" d="M 209.5,248.5 C 198.856,247.458 188.189,247.291 177.5,248C 175.563,248.122 174.23,248.955 173.5,250.5C 164.96,231.785 151.626,217.285 133.5,207C 111.754,195.474 88.7543,187.64 64.5,183.5C 62.2236,146.444 43.8902,120.944 9.5,107C 6.25215,105.54 2.91882,104.374 -0.5,103.5C -0.5,80.5 -0.5,57.5 -0.5,34.5C 20.5847,27.1791 42.2514,24.6791 64.5,27C 99.4838,33.0774 123.651,52.5774 137,85.5C 139.706,92.6191 142.206,99.7857 144.5,107C 211.765,118.038 236.932,156.538 220,222.5C 217.296,231.562 213.796,240.229 209.5,248.5 Z"/></g>
<g><path style="opacity:0.998" fill="#1ee492" d="M 1910.5,36.5 C 1910.5,117.167 1910.5,197.833 1910.5,278.5C 1881.64,280.649 1853.64,276.815 1826.5,267C 1810.72,260.215 1797.55,250.048 1787,236.5C 1784.34,232.856 1782.51,228.856 1781.5,224.5C 1760.87,226.324 1740.2,226.824 1719.5,226C 1698.87,224.008 1680.2,217.008 1663.5,205C 1648.17,192.506 1640.84,176.339 1641.5,156.5C 1642.81,144.208 1647.65,133.541 1656,124.5C 1670.68,111.073 1687.85,102.24 1707.5,98C 1712.05,72.4521 1726.05,54.1188 1749.5,43C 1771.18,33.5964 1793.85,28.2631 1817.5,27C 1834.5,26.3333 1851.5,26.3333 1868.5,27C 1882.98,28.1953 1896.98,31.362 1910.5,36.5 Z"/></g>
<g><path style="opacity:1" fill="#953efe" d="M -0.5,103.5 C 2.91882,104.374 6.25215,105.54 9.5,107C 43.8902,120.944 62.2236,146.444 64.5,183.5C 88.7543,187.64 111.754,195.474 133.5,207C 151.626,217.285 164.96,231.785 173.5,250.5C 179.107,268.61 178.607,286.61 172,304.5C 164.316,324.879 153.816,343.546 140.5,360.5C 112.967,347.533 83.9675,340.033 53.5,338C 35.5031,337.5 17.5031,337.333 -0.5,337.5C -0.5,259.5 -0.5,181.5 -0.5,103.5 Z"/></g>
<g><path style="opacity:0.998" fill="#33cbfe" d="M 1641.5,156.5 C 1640.84,176.339 1648.17,192.506 1663.5,205C 1680.2,217.008 1698.87,224.008 1719.5,226C 1740.2,226.824 1760.87,226.324 1781.5,224.5C 1782.51,228.856 1784.34,232.856 1787,236.5C 1797.55,250.048 1810.72,260.215 1826.5,267C 1853.64,276.815 1881.64,280.649 1910.5,278.5C 1910.5,305.167 1910.5,331.833 1910.5,358.5C 1872.24,345.489 1833.91,345.322 1795.5,358C 1769.67,366.828 1751.17,383.661 1740,408.5C 1737.39,415.278 1735.89,422.278 1735.5,429.5C 1731.29,430.238 1727.29,431.572 1723.5,433.5C 1706.91,427.368 1691.57,418.868 1677.5,408C 1666.81,398.825 1657.81,388.325 1650.5,376.5C 1610.89,382.456 1573.89,375.289 1539.5,355C 1530.97,348.971 1523.64,341.805 1517.5,333.5C 1497.9,297.054 1505.57,267.887 1540.5,246C 1551.92,239.456 1563.92,234.289 1576.5,230.5C 1581.78,191.545 1603.45,166.878 1641.5,156.5 Z"/></g>
<g><path style="opacity:0.998" fill="#1ee492" d="M 209.5,248.5 C 274.574,256.574 310.907,293.241 318.5,358.5C 336.175,359.085 352.842,363.419 368.5,371.5C 399.171,390.392 418.004,417.725 425,453.5C 432.544,486.919 426.711,517.586 407.5,545.5C 375.833,545.5 344.167,545.5 312.5,545.5C 318.617,500.561 301.284,468.394 260.5,449C 237.172,439.101 212.839,433.601 187.5,432.5C 186.45,411.236 178.45,393.069 163.5,378C 156.217,371.536 148.55,365.702 140.5,360.5C 153.816,343.546 164.316,324.879 172,304.5C 178.607,286.61 179.107,268.61 173.5,250.5C 174.23,248.955 175.563,248.122 177.5,248C 188.189,247.291 198.856,247.458 209.5,248.5 Z"/></g>
<g><path style="opacity:0.998" fill="#1fe492" d="M 1517.5,333.5 C 1523.64,341.805 1530.97,348.971 1539.5,355C 1573.89,375.289 1610.89,382.456 1650.5,376.5C 1657.81,388.325 1666.81,398.825 1677.5,408C 1691.57,418.868 1706.91,427.368 1723.5,433.5C 1680.1,450.641 1666.27,481.308 1682,525.5C 1686.8,534.803 1693.97,541.47 1703.5,545.5C 1688.83,545.5 1674.17,545.5 1659.5,545.5C 1651.21,501.044 1624.54,476.544 1579.5,472C 1573.84,471.501 1568.18,471.334 1562.5,471.5C 1557.86,441.406 1541.52,420.239 1513.5,408C 1495.8,401.16 1477.47,397.66 1458.5,397.5C 1468.65,382.253 1482.99,374.587 1501.5,374.5C 1498.23,357.288 1503.56,343.622 1517.5,333.5 Z"/></g>
<g><path style="opacity:1" fill="#33cbfe" d="M -0.5,337.5 C 17.5031,337.333 35.5031,337.5 53.5,338C 83.9675,340.033 112.967,347.533 140.5,360.5C 148.55,365.702 156.217,371.536 163.5,378C 178.45,393.069 186.45,411.236 187.5,432.5C 212.839,433.601 237.172,439.101 260.5,449C 301.284,468.394 318.617,500.561 312.5,545.5C 208.167,545.5 103.833,545.5 -0.5,545.5C -0.5,476.167 -0.5,406.833 -0.5,337.5 Z"/></g>
<g><path style="opacity:1" fill="#953efe" d="M 1910.5,358.5 C 1910.5,420.833 1910.5,483.167 1910.5,545.5C 1841.5,545.5 1772.5,545.5 1703.5,545.5C 1693.97,541.47 1686.8,534.803 1682,525.5C 1666.27,481.308 1680.1,450.641 1723.5,433.5C 1727.29,431.572 1731.29,430.238 1735.5,429.5C 1735.89,422.278 1737.39,415.278 1740,408.5C 1751.17,383.661 1769.67,366.828 1795.5,358C 1833.91,345.322 1872.24,345.489 1910.5,358.5 Z"/></g>
<g><path style="opacity:0.995" fill="#33ccfe" d="M 650.5,545.5 C 569.5,545.5 488.5,545.5 407.5,545.5C 426.711,517.586 432.544,486.919 425,453.5C 418.004,417.725 399.171,390.392 368.5,371.5C 400.487,365.271 432.487,365.105 464.5,371C 498.977,378.459 523.81,397.959 539,429.5C 541.93,436.221 543.764,443.221 544.5,450.5C 572.226,451.352 597.226,459.852 619.5,476C 640.856,494.215 651.189,517.382 650.5,545.5 Z"/></g>
<g><path style="opacity:0.999" fill="#953efe" d="M 1458.5,397.5 C 1477.47,397.66 1495.8,401.16 1513.5,408C 1541.52,420.239 1557.86,441.406 1562.5,471.5C 1568.18,471.334 1573.84,471.501 1579.5,472C 1624.54,476.544 1651.21,501.044 1659.5,545.5C 1529.5,545.5 1399.5,545.5 1269.5,545.5C 1268.29,518.879 1279.29,499.045 1302.5,486C 1310.41,481.378 1318.74,477.878 1327.5,475.5C 1328.57,449.951 1339.91,430.451 1361.5,417C 1383.05,405.528 1406.05,399.195 1430.5,398C 1439.83,397.5 1449.16,397.334 1458.5,397.5 Z"/></g>
</svg>
