<?xml version="1.0" encoding="UTF-8"?>
<svg xmlns="http://www.w3.org/2000/svg" viewBox="0 0 1979 627">
  <defs>
    <style>
      .cls-1 {
        fill: #1ee592;
      }

      .cls-1, .cls-2, .cls-3 {
        stroke-width: 0px;
      }

      .cls-2 {
        fill: #963eff;
      }

      .cls-3 {
        fill: #3cf;
      }
    </style>
  </defs>
  <g id="cloud_left" data-name="cloud left">
    <path class="cls-3" d="M650.86,548s8.47-86.19-105.97-95.89c0,0-10.6-108.1-175.66-78.29v174.18h281.63Z"/>
    <path class="cls-3" d="M0,37.25S113.14-10.11,144.35,109.49c0,0,123.54,8.62,66.32,138.99l-97.77,46.87L0,301.33V37.25Z"/>
    <path class="cls-1" d="M173.18,250.4s131.13-20.24,145.43,110.13c0,0,72.83-2.15,100.13,72.19,27.31,74.34-11.7,115.28-11.7,115.28H116.26v-244.82l56.92-52.78Z"/>
    <path class="cls-2" d="M0,104.89s66.32,18.6,63.72,80.02c0,0,195.07,25.86,75.43,178.85L0,368.04V104.89Z"/>
    <path class="cls-3" d="M0,339.32s178.16-17.58,188.57,94.47c0,0,141.13,2.15,124.54,114.21H0v-208.68Z"/>
  </g>
  <g id="cloud_right" data-name="cloud right">
    <path class="cls-1" d="M1519.06,335.2s-21.38,9.86-16.69,40.85c0,0-28.08-.17-42.78,22.91v149.04h336.2v-199.32l-175.98-35.11-100.76,21.63Z"/>
    <path class="cls-3" d="M1642.32,158.39s-60.18,12.72-64.87,73.7c0,0-71.55,19.99-69.21,66.98s37.84,63.99,67.01,73.48c29.17,9.49,67.88,6.49,74.92,4.49,0,0,22.29,41.99,75.07,56.98l8.21,26.99h186.83V186l-277.97-27.61Z"/>
    <path class="cls-1" d="M1919.95,44.97s-16.42-18.82-85.63-16.82c-69.21,2-119.64,22.99-125.51,71.98,0,0-75.07,14-65.69,72.98,0,0,8.57,69.9,138,52.44,0,0,15.51,52.08,107.15,54.52,37.54,1,31.67-3.78,31.67-3.78V44.97Z"/>
    <path class="cls-2" d="M1919.95,364.35s-23.46-14.29-66.86-14.29-110.26,17-117.3,80.98c0,0-60.99,13-59.82,64.98,1.17,51.99,36.65,51.99,36.65,51.99h207.32v-183.65Z"/>
    <path class="cls-2" d="M1660.09,548s-6.41-77.98-96.73-74.98c0,0-3.52-76.98-114.95-73.98s-119.64,57.98-119.64,77.98c0,0-64.97,17-58.29,70.98h389.61Z"/>
  </g>
</svg>